<?xml version="1.0" encoding="utf-8"?>
<!-- Generator: Adobe Illustrator 19.0.0, SVG Export Plug-In . SVG Version: 6.00 Build 0)  -->
<svg version="1.1" id="Layer_1" xmlns="http://www.w3.org/2000/svg" xmlns:xlink="http://www.w3.org/1999/xlink" x="0px" y="0px"
	 viewBox="-7 -24.9 595.3 841.9" style="enable-background:new -7 -24.9 595.3 841.9;" xml:space="preserve">
<style type="text/css">
	.st0{fill:#052B4F;}
</style>
<path class="st0" d="M156.9,278.7L277.5,213c2.4-1.4,5.8-3.4,8.1-4.3c6.3,5.1,15.6,18.5,19.9,26.1c12,20.9,20.1,44.8,22.4,69.8
	c0.6,7.3,0.6,15-0.1,22.2c-0.6,6.8-2.7,13.9-2.7,20.7c1.9-0.7,4.1-2.3,6.4-3.5c2.2-1.2,4.5-2.2,6.8-3c28.7-10.8,51.9,2.4,77.8,12.2
	c8.9,3.4,17.4,6.2,26.9,7.4c0.7,0.1,1.5,0.2,2.3,0.3c0.8,0.1,1.5,0.1,2.1,0.5c-1.7,2.4-18.6,21.7-21.8,25.8
	c-4.2,5.2-10.7,12.1-14.7,17.1c-1.2,1.5-2.4,2.9-3.6,4.2l-11,13c-2.4,3-5,5.7-7.3,8.7c-2.4,3-4.8,5.6-7.3,8.5
	c-2.5,3-4.9,5.8-7.3,8.7l-21.9,25.7c-2.7,3-4.9,5.8-7.4,8.6c-1.4,1.6-2.3,2.7-3.6,4.2c-1.9,2.2-2.6,1.8-1.9,5.4
	c0.8,4.5,1.9,9.5,2.4,13.9c-2.5-0.6-81.6-32-83.2-32.6c-17.2-6.9-34.6-13.5-51.7-20.4c-7.1-2.9-2.2-0.2-6.8-7.7
	c-2.1-3.3-4.2-5.2-7.1-7.4c-1.7-1.4-6.9-4.7-9-5.5c0.2-3.2,2.5-14.8,3.2-20.7c0.9-7.3,1.5-14.5,1.8-22.1c1.2-33.6-7-66.6-23.3-95.3
	L156.9,278.7z M129.8,273.6c0.1,2.2,11.2,43.6,12.1,46.9c4,15.7,8.1,31,12.2,46.7c4,15.6,8.1,31.1,12.1,46.7c2,7.8,4,15.7,6.1,23.5
	c1.2,4.2,0,2.2-0.8,5.5c-2,8.1,8,18,15.4,20.9c7.5,3,9.7,0.1,11.5-0.5c1.2-0.4,96.5,37.8,105.4,41.3l31.8,12.5c3.3,1.3,7.1,3,10.4,4
	c1-0.6,44.6-56.7,47.7-60.6c15.8-20,31.8-41.1,47.7-60.8c5.4-6.8,10.6-13.5,15.8-20.3c2.7-3.4,5.3-6.8,8-10.1l7.8-10.3
	c-1.1-0.4-35.5-4.2-39.8-4.8c-8.1-0.9-11.7-0.7-18.7-3.4c-16.8-6.5-33.2-13.6-52.8-14c-7.2-0.1-13.5,0.3-20.2,2
	c-2.8,0.8-5.8,1.8-8.3,3c-2.9,1.4-3.9-0.6-6.7-2.8c0.1-1.4,0.9-3.5,1.2-5c5.6-22.9-0.1-56.9-8.3-77.3c-5.5-13.5-9.2-19.7-17.6-30.4
	c-7.1-9.1-4.5-0.9-8.1-15.8c-0.6-2.6-4.1-18.1-4.8-19.2l-19.9,10.2c-6.6,3.5-13.2,6.8-19.9,10.4c-6.5,3.5-13.4,7-20,10.3
	c-6.6,3.3-13,6.9-19.8,10.3c-13.4,6.7-26.6,13.8-40,20.7c-6.6,3.3-13.1,6.9-19.9,10.3L129.8,273.6z"/>
<path d="M187.8,285.5c1.4,2.4,2.9,4.8,4.1,7.1c1.3,2.5,2.4,4.8,3.7,7.3c7,13.7,13,35.2,15.4,50.5c3.6,22.6,3.2,47.2-3.5,69.4
	c-0.5,1.4-2.6,7.3-2.6,8.1c3.5-0.3,6-0.8,10-0.6c27.2,1.3,59.3,22.7,81,36.9c2.6,1.7,23.7,16.6,25.4,17.4c-1-1.2-4.3-3.5-5.8-4.7
	c-13.5-10.9-26.2-22-40.4-32.3c-7.4-5.5-16.3-11.1-26.1-15.5c-4.9-2.2-10.2-4-15.6-5.2c-5.3-1.1-11.3-1.6-16.7-0.9
	c-0.2,0-0.9,0.1-1.2,0.1c-0.5,0-0.3,0-0.6-0.1l-0.4-0.1c2.9-1.2,10.4-5.9,13.5-7.8c4.5-2.7,8.7-5.5,13-8.4
	c15.3-9.8,35-24.4,49.8-35.3c1.7-1.3,23.3-17.1,24.3-18.3c-1.5,0.4-5.4,2.9-7,3.7c-25.1,13.8-62.1,37.2-84,54.2l-11.9,9.4
	c0.5-2.3,2.1-5.8,2.9-8.4c0.8-2.7,1.7-5.9,2.3-8.7c4.4-19.7,3.9-39.5-0.4-59.2c-3.8-17.1-10.7-32.3-19.7-46.2
	C195.7,295.5,189.4,286.6,187.8,285.5z"/>
</svg>
